<?xml version="1.0" encoding="UTF-8" standalone="no"?>
<svg
   height="480"
   width="800"
   version="1.1"
   id="svg3095"
   inkscape:version="1.2.1 (9c6d41e410, 2022-07-14)"
   sodipodi:docname="screen-template.5.svg"
   xml:space="preserve"
   xmlns:inkscape="http://www.inkscape.org/namespaces/inkscape"
   xmlns:sodipodi="http://sodipodi.sourceforge.net/DTD/sodipodi-0.dtd"
   xmlns="http://www.w3.org/2000/svg"
   xmlns:svg="http://www.w3.org/2000/svg"><defs
     id="defs82" /><sodipodi:namedview
     id="namedview80"
     pagecolor="#ffffff"
     bordercolor="#000000"
     borderopacity="0.25"
     inkscape:showpageshadow="2"
     inkscape:pageopacity="0.0"
     inkscape:pagecheckerboard="0"
     inkscape:deskcolor="#d1d1d1"
     showgrid="false"
     inkscape:zoom="1.5125"
     inkscape:cx="400"
     inkscape:cy="240.66116"
     inkscape:window-width="1920"
     inkscape:window-height="1017"
     inkscape:window-x="-8"
     inkscape:window-y="-8"
     inkscape:window-maximized="1"
     inkscape:current-layer="svg3095" /><rect
     width="800"
     height="480"
     id="rect3855"
     fill="white" /><g
     transform="scale(1.2) translate(100 500)"
     id="currentweather"><use
       id="currentweathericon"
       href="icons/ICON_ONE.svg" /></g><text
     id="temphighlow"
     x="741.44629"
     y="62.47934"
     font-size="38px"
     style="font-size:38px;line-height:0%;font-family:'Nimbus Sans L';text-anchor:middle">HIGH_ONE/LOW_ONE</text><text
     id="weatherdesc1"
     x="680.29553"
     y="107.07899"
     font-size="38px"
     style="font-size:28px;line-height:0%;font-family:'Nimbus Sans L';text-anchor:middle">WEATHER_DESC_1</text><text
     id="weaetherdesc2"
     x="680.29553"
     y="137.07898"
     font-size="38px"
     style="font-size:28px;line-height:0%;font-family:'Nimbus Sans L';text-anchor:middle">WEATHER_DESC_2</text><path
     d="M 371.31606,331.93828 V 464.8254 h 3 V 17.755152 h -3 z"
     id="divider"
     inkscape:connector-curvature="0"
     style="stroke-width:1.37782" /><g
     id="calendaricon"
     transform="matrix(0.1,0,0,0.1,412.79339,207.93388)"><path
       style="fill:#090509"
       d="M 506.645,89.372 C 502.609,76.437 491.008,66.87 476.738,66.87 h -31.782 v 49.326 c 0,26.284 -21.39,47.674 -47.674,47.674 -26.284,0 -47.674,-21.39 -47.674,-47.674 V 66.87 H 158.753 v 49.326 c 0,26.284 -21.39,47.674 -47.674,47.674 -26.284,0 -47.674,-21.39 -47.674,-47.674 V 66.87 H 31.782 c -14.27,0 -25.903,9.567 -29.907,22.502 H 0 v 387.365 c 0,17.544 14.239,31.782 31.782,31.782 h 444.955 c 17.544,0 31.782,-14.239 31.782,-31.782 V 89.372 Z M 476.737,476.737 H 31.782 v -254.26 h 444.955 z"
       id="path132"
       inkscape:connector-curvature="0" /><path
       style="fill:#090509"
       d="m 111.08,132.088 c 8.772,0 15.891,-7.119 15.891,-15.891 V 15.891 C 126.971,7.119 119.852,0 111.08,0 102.308,0 95.189,7.119 95.189,15.891 v 100.306 c 0,8.772 7.119,15.891 15.891,15.891 z"
       id="path134"
       inkscape:connector-curvature="0" /><path
       style="fill:#090509"
       d="m 397.281,132.088 c 8.74,0 15.891,-7.119 15.891,-15.891 V 15.891 C 413.172,7.119 406.021,0 397.281,0 388.541,0 381.39,7.119 381.39,15.891 v 100.306 c 0,8.772 7.151,15.891 15.891,15.891 z"
       id="path136"
       inkscape:connector-curvature="0" /></g><text
     id="calendarentry1"
     x="412.7934"
     y="262.9339"
     font-size="29px"
     style="font-size:29px;line-height:0%;font-family:'Nimbus Sans L'"><tspan
       x="412.7934"
       dy="25"
       style="font-size:23px"
       id="tspan55">CAL_DATETIME_1</tspan><tspan
       style="font-weight:bold"
       x="412.7934"
       dy="25"
       id="tspan57"><![CDATA[CAL_DESC_1]]></tspan></text><text
     id="calendarentry2"
     x="412.7934"
     y="312.9339"
     font-size="29px"
     style="font-size:29px;line-height:0%;font-family:'Nimbus Sans L'"><tspan
       x="412.7934"
       dy="25"
       style="font-size:23px"
       id="tspan60">CAL_DATETIME_2</tspan><tspan
       style="font-weight:bold"
       x="412.7934"
       dy="25"
       id="tspan62"><![CDATA[CAL_DESC_2]]></tspan></text><text
     id="calendarentry3"
     x="412.7934"
     y="362.9339"
     font-size="29px"
     style="font-size:29px;line-height:0%;font-family:'Nimbus Sans L'"><tspan
       x="412.7934"
       dy="25"
       style="font-size:23px"
       id="tspan65">CAL_DATETIME_3</tspan><tspan
       style="font-weight:bold"
       x="412.7934"
       dy="25"
       id="tspan67"><![CDATA[CAL_DESC_3]]></tspan></text><text
     id="calendarentry4"
     x="412.7934"
     y="412.9339"
     font-size="29px"
     style="font-size:29px;line-height:0%;font-family:'Nimbus Sans L'"><tspan
       x="412.7934"
       dy="25"
       style="font-size:23px"
       id="tspan70">CAL_DATETIME_4</tspan><tspan
       style="font-weight:bold"
       x="412.7934"
       dy="25"
       id="tspan72"><![CDATA[CAL_DESC_4]]></tspan></text><g
     id="g611"
     transform="translate(-0.45454597,0.45454407)"><text
       id="calendarentry1-5"
       x="19.081011"
       y="286.00931"
       font-size="29px"
       style="font-size:29px;line-height:0%;font-family:'Nimbus Sans L'"><tspan
         x="19.081011"
         style="font-size:23px"
         id="tspan55-5">Monday</tspan><tspan
         style="font-weight:bold"
         x="19.081011"
         id="tspan57-7"
         dy="25"><![CDATA[CUSTOM_DATA_4]]></tspan></text><text
       id="calendarentry2-3"
       x="19.915483"
       y="336.00931"
       font-size="29px"
       style="font-size:29px;line-height:0%;font-family:'Nimbus Sans L'"><tspan
         x="19.915483"
         style="font-size:23px"
         id="tspan60-9">Tuesday</tspan><tspan
         style="font-weight:bold"
         x="19.915483"
         id="tspan62-1"
         dy="25"><![CDATA[CUSTOM_DATA_5]]></tspan></text><text
       id="calendarentry3-0"
       x="20.173784"
       y="386.00931"
       font-size="29px"
       style="font-size:29px;line-height:0%;font-family:'Nimbus Sans L'"><tspan
         x="20.173784"
         style="font-size:23px"
         id="tspan65-7">Wednesday</tspan><tspan
         style="font-weight:bold"
         x="20.173784"
         id="tspan67-7"
         dy="25"><![CDATA[CUSTOM_DATA_6]]></tspan></text><text
       id="calendarentry1-5-4"
       x="19.081011"
       y="136.00932"
       font-size="29px"
       style="font-size:29px;line-height:0%;font-family:'Nimbus Sans L'"><tspan
         x="19.081011"
         style="font-size:23px"
         id="tspan55-5-0">Friday</tspan><tspan
         style="font-weight:bold"
         x="19.081011"
         id="tspan57-7-7"
         dy="25"><![CDATA[CUSTOM_DATA_1]]></tspan></text><text
       id="calendarentry2-3-0"
       x="19.421343"
       y="186.29008"
       font-size="29px"
       style="font-size:29px;line-height:0%;font-family:'Nimbus Sans L'"><tspan
         x="19.421343"
         style="font-size:23px"
         id="tspan60-9-1">Saturday</tspan><tspan
         style="font-weight:bold"
         x="19.421343"
         id="tspan62-1-7"
         dy="25"><![CDATA[CUSTOM_DATA_2]]></tspan></text><text
       id="calendarentry3-0-2"
       x="19.421343"
       y="236.29008"
       font-size="29px"
       style="font-size:29px;line-height:0%;font-family:'Nimbus Sans L'"><tspan
         x="19.421343"
         style="font-size:23px"
         id="tspan65-7-9">Sunday</tspan><tspan
         style="font-weight:bold"
         x="19.421343"
         id="tspan67-7-1"
         dy="25"><![CDATA[CUSTOM_DATA_3]]></tspan></text><text
       id="calendarentry4-3"
       x="19.915483"
       y="436.00931"
       font-size="29px"
       style="font-size:29px;line-height:0%;font-family:'Nimbus Sans L'"><tspan
         x="19.915483"
         style="font-size:23px"
         id="tspan70-6">Thursday</tspan><tspan
         style="font-weight:bold"
         x="19.915483"
         dy="25"
         id="tspan72-6"><![CDATA[CUSTOM_DATA_7]]></tspan></text></g><g
     id="g765"
     transform="matrix(0.10208823,0,0,0.10208823,19.999955,54.88732)"><g
       id="XMLID_95_">
	<path
   id="XMLID_98_"
   d="m 155.183,305.646 c -2.081,0.175 -4.157,0.265 -6.238,0.265 -5.693,0 -11.23,-0.826 -16.652,-2.081 L 6.834,429.293 c -6.158,6.149 -6.158,16.137 0,22.287 l 32.47,32.478 c 6.158,6.15 16.135,6.15 22.276,0 l 150.785,-150.757 -27.944,-30.15 z" />
	<path
   id="XMLID_97_"
   d="m 485.345,104.649 c -5.888,-5.885 -15.417,-5.885 -21.304,0 l -81.303,81.301 c -7.693,7.685 -20.154,7.685 -27.847,0 -7.659,-7.679 -7.659,-20.13 0,-27.807 l 80.901,-80.884 c 6.112,-6.118 6.112,-16.036 0,-22.168 -6.141,-6.11 -16.055,-6.11 -22.167,0 l -80.868,80.876 c -7.693,7.693 -20.14,7.693 -27.833,0 -7.677,-7.676 -7.677,-20.136 0,-27.806 L 386.21,26.868 c 5.904,-5.894 5.904,-15.441 0,-21.343 -5.888,-5.895 -15.434,-5.895 -21.338,0 l -91.458,91.463 c -21.989,22.003 -28.935,52.888 -21.816,80.991 l 61.31,61.314 c 28.101,7.093 59.001,0.144 80.965,-21.841 l 91.471,-91.458 c 5.905,-5.894 5.905,-15.451 0.001,-21.345 z" />
	<path
   id="XMLID_96_"
   d="M 41.093,13.791 C 37.959,10.656 33.721,8.937 29.369,8.937 c -0.926,0 -1.857,0.079 -2.766,0.231 -5.295,0.896 -9.838,4.295 -12.172,9.133 -26.79,55.373 -15.594,121.631 27.894,165.121 l 77.801,77.791 c 7.676,7.685 18.055,11.939 28.819,11.939 1.151,0 2.305,-0.048 3.456,-0.143 l 45.171,-3.855 196.971,212.489 c 3.058,3.303 7.342,5.221 11.855,5.31 0.093,0 0.19,0 0.288,0 4.412,0 8.636,-1.743 11.771,-4.855 l 33.734,-33.741 c 3.117,-3.11 4.859,-7.331 4.859,-11.73 0,-4.398 -1.742,-8.622 -4.846,-11.732 z" />
</g><g
       id="g711">
</g><g
       id="g713">
</g><g
       id="g715">
</g><g
       id="g717">
</g><g
       id="g719">
</g><g
       id="g721">
</g><g
       id="g723">
</g><g
       id="g725">
</g><g
       id="g727">
</g><g
       id="g729">
</g><g
       id="g731">
</g><g
       id="g733">
</g><g
       id="g735">
</g><g
       id="g737">
</g><g
       id="g739">
</g></g></svg>
